<svg width="563" height="378" viewBox="0 0 563 378" fill="none" xmlns="http://www.w3.org/2000/svg">
<g filter="url(#filter0_d_1002_3941)">
<rect x="36" y="32" width="491" height="306" rx="20" fill="white"/>
</g>
<g filter="url(#filter1_d_1002_3941)">
<ellipse cx="368.812" cy="295.899" rx="12.3264" ry="12.3221" fill="url(#paint0_linear_1002_3941)"/>
</g>
<g clip-path="url(#clip0_1002_3941)">
<path d="M367.12 301.465V300.57H366.455C364.896 300.57 363.644 299.318 363.644 297.759V294.31C363.644 292.751 364.896 291.499 366.455 291.499H371.108C372.667 291.499 373.92 292.751 373.92 294.31V297.759C373.92 299.318 372.667 300.57 371.108 300.57H368.628L367.12 301.465ZM366.455 292.265C365.331 292.265 364.41 293.185 364.41 294.31V297.759C364.41 298.884 365.331 299.804 366.455 299.804H367.12V300.57L368.424 299.804H371.108C372.233 299.804 373.153 298.884 373.153 297.759V294.31C373.153 293.185 372.233 292.265 371.108 292.265H366.455Z" fill="white"/>
</g>
<g filter="url(#filter2_d_1002_3941)">
<ellipse cx="303.071" cy="295.899" rx="12.3264" ry="12.3221" fill="url(#paint1_linear_1002_3941)"/>
</g>
<path d="M298.16 295.462H300.553C300.672 295.462 300.752 295.541 300.752 295.661V299.029C300.752 299.328 300.513 299.567 300.214 299.567C299.077 299.587 298.14 298.63 298.16 297.494" stroke="white" stroke-miterlimit="10"/>
<path d="M308.128 297.514V294.943C308.128 292.193 305.895 289.961 303.144 289.961C300.393 289.961 298.16 292.193 298.16 294.943V297.514" stroke="white" stroke-miterlimit="10"/>
<path d="M308.131 295.462H305.738C305.619 295.462 305.539 295.542 305.539 295.661V299.029C305.539 299.328 305.778 299.568 306.077 299.568C307.214 299.568 308.151 298.631 308.131 297.475" stroke="white" stroke-miterlimit="10"/>
<path d="M306.074 299.587C306.074 299.587 305.715 301.7 302.525 301.7" stroke="white" stroke-miterlimit="10" stroke-linecap="round"/>
<g filter="url(#filter3_d_1002_3941)">
<ellipse cx="270.686" cy="295.899" rx="12.3264" ry="12.3221" fill="url(#paint2_linear_1002_3941)"/>
</g>
<path d="M269.63 292.254C269.412 293.027 268.701 293.594 267.858 293.594C267.015 293.594 266.305 293.027 266.087 292.254H269.63Z" stroke="white"/>
<path d="M271.568 295.937V292.254H274.662L271.568 295.937Z" stroke="white"/>
<path d="M271.623 299.252C271.841 298.48 272.551 297.913 273.394 297.913C274.237 297.913 274.947 298.48 275.165 299.252L271.623 299.252Z" stroke="white"/>
<path d="M269.685 295.57L269.685 299.253L266.591 299.253L269.685 295.57Z" stroke="white"/>
<g filter="url(#filter4_d_1002_3941)">
<ellipse cx="401.682" cy="295.899" rx="12.3264" ry="12.3221" fill="url(#paint3_linear_1002_3941)"/>
</g>
<g clip-path="url(#clip1_1002_3941)">
<path d="M405.41 291.166C405.895 291.831 405.844 292.802 405.231 293.39L397.971 300.647C397.485 299.982 397.536 299.011 398.15 298.424L405.41 291.166ZM405.41 290.221C405.307 290.221 405.205 290.272 405.103 290.349L397.588 297.861C396.616 298.832 396.616 300.417 397.588 301.388L397.639 301.439C397.715 301.516 397.818 301.567 397.945 301.567C398.048 301.567 398.15 301.516 398.252 301.439L405.767 293.926C406.739 292.955 406.739 291.371 405.767 290.4L405.716 290.349C405.64 290.272 405.512 290.221 405.41 290.221Z" fill="white"/>
<path d="M400.015 290.885C400.578 291.448 400.578 292.367 400.015 292.955L397.715 295.255C397.152 294.693 397.152 293.773 397.715 293.185L400.015 290.885ZM400.015 289.965C399.913 289.965 399.836 289.991 399.76 290.068L397.178 292.674C396.309 293.543 396.309 294.948 397.178 295.817L397.433 296.098C397.51 296.175 397.612 296.201 397.689 296.201C397.791 296.201 397.868 296.175 397.945 296.098L400.526 293.517C401.396 292.649 401.396 291.243 400.526 290.374L400.245 290.093C400.22 289.991 400.117 289.965 400.015 289.965Z" fill="white"/>
<path d="M405.666 296.533C406.229 297.095 406.229 298.015 405.666 298.603L403.366 300.903C403.085 300.622 402.957 300.264 402.957 299.881C402.957 299.497 403.11 299.114 403.391 298.858L405.666 296.533ZM405.666 295.613C405.564 295.613 405.487 295.639 405.411 295.715L402.803 298.296C401.934 299.165 401.934 300.571 402.803 301.439L403.085 301.72C403.161 301.797 403.263 301.823 403.34 301.823C403.442 301.823 403.519 301.797 403.596 301.72L406.178 299.14C407.047 298.271 407.047 296.865 406.178 295.996L405.896 295.715C405.845 295.639 405.769 295.613 405.666 295.613Z" fill="white"/>
</g>
<g filter="url(#filter5_d_1002_3941)">
<ellipse cx="434.552" cy="295.899" rx="12.3264" ry="12.3221" fill="url(#paint4_linear_1002_3941)"/>
</g>
<path d="M436.479 299.176L434.815 296.464L436.303 293.675L439.505 299.176H436.479Z" stroke="white"/>
<path d="M430.234 299.177L434.779 290.989L436.222 293.541L432.975 299.177H430.234Z" stroke="white"/>
<g filter="url(#filter6_d_1002_3941)">
<ellipse cx="335.941" cy="295.899" rx="12.3264" ry="12.3221" fill="url(#paint5_linear_1002_3941)"/>
</g>
<path d="M336.012 298.398C335.807 298.398 335.628 298.219 335.628 298.015V291.115C335.628 290.911 335.807 290.732 336.012 290.732C336.216 290.732 336.395 290.911 336.395 291.115V298.015C336.395 298.219 336.216 298.398 336.012 298.398Z" fill="white"/>
<path d="M338.568 297.939C338.363 297.939 338.184 297.76 338.184 297.555V291.576C338.184 291.371 338.363 291.192 338.568 291.192C338.772 291.192 338.951 291.371 338.951 291.576V297.53C338.951 297.76 338.772 297.939 338.568 297.939Z" fill="white"/>
<path d="M341.124 297.35C340.919 297.35 340.74 297.171 340.74 296.966V292.162C340.74 291.958 340.919 291.779 341.124 291.779C341.328 291.779 341.507 291.958 341.507 292.162V296.966C341.507 297.171 341.328 297.35 341.124 297.35Z" fill="white"/>
<path d="M333.456 291.192C333.66 291.192 333.839 291.371 333.839 291.576V297.53C333.839 297.734 333.66 297.913 333.456 297.913C333.251 297.913 333.073 297.734 333.073 297.53V291.576C333.073 291.371 333.251 291.192 333.456 291.192Z" fill="white"/>
<path d="M330.9 291.78C331.104 291.78 331.283 291.959 331.283 292.163V296.967C331.283 297.172 331.104 297.351 330.9 297.351C330.695 297.351 330.517 297.172 330.517 296.967V292.163C330.517 291.959 330.695 291.78 330.9 291.78Z" fill="white"/>
<path d="M330.902 299.139C330.902 299.139 335.298 302.461 341.127 299.139" stroke="white" stroke-miterlimit="10" stroke-linecap="round"/>
<path d="M461.404 304.818C461.404 304.454 461.493 304.196 461.67 304.045C461.847 303.889 462.063 303.811 462.318 303.811C462.584 303.811 462.808 303.889 462.99 304.045C463.172 304.196 463.263 304.454 463.263 304.818C463.263 305.178 463.172 305.441 462.99 305.607C462.808 305.769 462.584 305.85 462.318 305.85C462.063 305.85 461.847 305.769 461.67 305.607C461.493 305.441 461.404 305.178 461.404 304.818ZM465.607 304.818C465.607 304.454 465.696 304.196 465.873 304.045C466.05 303.889 466.266 303.811 466.521 303.811C466.787 303.811 467.011 303.889 467.193 304.045C467.375 304.196 467.467 304.454 467.467 304.818C467.467 305.178 467.375 305.441 467.193 305.607C467.011 305.769 466.787 305.85 466.521 305.85C466.266 305.85 466.05 305.769 465.873 305.607C465.696 305.441 465.607 305.178 465.607 304.818ZM469.81 304.818C469.81 304.454 469.899 304.196 470.076 304.045C470.253 303.889 470.469 303.811 470.724 303.811C470.99 303.811 471.214 303.889 471.396 304.045C471.579 304.196 471.67 304.454 471.67 304.818C471.67 305.178 471.579 305.441 471.396 305.607C471.214 305.769 470.99 305.85 470.724 305.85C470.469 305.85 470.253 305.769 470.076 305.607C469.899 305.441 469.81 305.178 469.81 304.818Z" fill="#BEC2C9"/>
<path opacity="0.06" d="M78.6006 271.255H475.098" stroke="black" stroke-width="0.5"/>
<path opacity="0.06" d="M78.6006 220.94H475.098" stroke="black" stroke-width="0.5"/>
<path opacity="0.06" d="M78.6006 169.597H475.098" stroke="black" stroke-width="0.5"/>
<path opacity="0.06" d="M78.6006 120.309H475.098" stroke="url(#paint6_linear_1002_3941)" stroke-width="0.5"/>
<path d="M77.5493 245.584C77.5493 245.584 92.2564 248.15 134.08 239.936C175.696 231.763 172.226 220.94 202.559 220.94C236.601 220.94 244.914 212.211 261.847 212.211C296.255 212.211 288.907 205.54 317.458 201.946C351.507 197.66 385.772 175.246 410.297 169.599C453.762 159.59 443.388 152.142 474.64 144.954" stroke="url(#paint7_linear_1002_3941)" stroke-dasharray="3 3"/>
<path d="M77.5734 259.96C77.5734 259.96 90.7052 253.285 132.528 245.07C174.145 236.897 162.831 239.423 192.106 231.208C224.881 222.011 246.563 219.399 263.496 219.399C297.904 219.399 288.359 200.916 316.91 197.322C350.958 193.036 380.596 186.027 409.358 167.544C446.877 143.432 443.388 140.332 474.64 133.144" stroke="url(#paint8_linear_1002_3941)" stroke-dasharray="3 3"/>
<path d="M77.5734 256.366C77.5734 256.366 93.7868 248.664 135.61 240.45C177.227 232.276 171.562 236.342 200.837 228.128C233.612 218.931 250.265 205.692 267.091 207.591C298.934 211.185 297.09 194.242 325.641 190.648C359.69 186.362 371.473 191.776 403.708 180.379C445.823 165.49 443.388 177.812 474.64 170.624" stroke="url(#paint9_linear_1002_3941)" stroke-dasharray="3 3"/>
<path d="M77.5734 266.121C77.5734 266.121 95.5493 251.745 134.583 248.151C173.656 244.553 174.643 237.883 204.946 233.262C238.598 228.13 272.35 223.661 289.176 225.56C321.019 229.154 315.58 215.292 344.131 211.698C378.179 207.412 373.406 194.755 406.79 189.107C450.835 181.656 445.442 187.054 476.694 179.866" stroke="url(#paint10_linear_1002_3941)" stroke-dasharray="3 3"/>
<path d="M78.4681 228.641C78.4681 228.641 98.2308 215.805 140.054 207.591C181.671 199.417 174.466 188.594 206.236 188.594C240.277 188.594 242.156 179.354 259.089 179.354C293.497 179.354 307.75 162.924 336.301 159.33C370.35 155.044 381.635 157.275 406.16 151.627C449.625 141.619 444.766 135.198 473.261 119.282" stroke="url(#paint11_linear_1002_3941)" stroke-dasharray="3 3"/>
<path d="M78.0067 251.231C78.0067 251.231 109.259 236.342 151.082 228.127C192.699 219.954 194.686 206.05 226.456 206.05C260.498 206.05 269.658 199.889 291.719 190.134C323.711 175.987 320.617 182.946 349.168 179.352C383.217 175.066 381.633 168.57 406.158 162.923C449.623 152.914 442.007 156.762 470.502 140.846" stroke="url(#paint12_linear_1002_3941)" stroke-dasharray="3 3"/>
<path d="M129.475 257.906C85.3055 267.661 77.0879 270.816 77.0879 270.816H475.098V123.906C475.098 106.45 447.426 185.263 403.962 195.272C379.437 200.919 359.311 223.845 325.263 228.131C296.712 231.725 293.313 232.235 260.956 234.802C244.076 236.141 225.004 240.963 193.123 244.047C160.89 247.165 170.774 248.785 129.475 257.906Z" fill="url(#paint13_linear_1002_3941)"/>
<path d="M77.0879 270.816C77.0879 270.816 79.6559 269.715 118.176 260.473C159.303 250.606 161.604 248.034 193.123 244.047C233.735 238.909 233.222 236.599 270.201 234.289C303.071 232.235 296.712 231.725 325.263 228.131C359.311 223.845 379.902 202.651 403.962 195.272C445.823 182.433 466.88 125.956 475.098 120.822" stroke="url(#paint14_linear_1002_3941)" stroke-width="2"/>
<path d="M428.416 184.487C428.416 186.486 426.795 188.107 424.794 188.107C422.793 188.107 421.172 186.486 421.172 184.487C421.172 182.487 422.793 180.866 424.794 180.866C426.795 180.866 428.416 182.487 428.416 184.487Z" fill="white" stroke="url(#paint15_linear_1002_3941)" stroke-width="2"/>
<path d="M299.475 232.748C299.475 234.748 297.854 236.369 295.853 236.369C293.852 236.369 292.23 234.748 292.23 232.748C292.23 230.749 293.852 229.128 295.853 229.128C297.854 229.128 299.475 230.749 299.475 232.748Z" fill="white" stroke="url(#paint16_linear_1002_3941)" stroke-width="2"/>
<path d="M188.538 245.071C188.538 247.07 186.916 248.691 184.915 248.691C182.915 248.691 181.293 247.07 181.293 245.071C181.293 243.071 182.915 241.45 184.915 241.45C186.916 241.45 188.538 243.071 188.538 245.071Z" fill="white" stroke="url(#paint17_linear_1002_3941)" stroke-width="2"/>
<g filter="url(#filter7_d_1002_3941)">
<ellipse cx="474.071" cy="113.482" rx="15.4079" ry="15.4027" fill="url(#paint18_linear_1002_3941)"/>
</g>
<g filter="url(#filter8_d_1002_3941)">
<path d="M478.545 106.029H469.35C467.859 106.029 466.616 107.905 466.616 109.147V123.916L469.698 120.984H479.539C480.781 120.984 481.776 120.189 481.776 118.699V109.147C481.776 107.408 480.533 106.029 478.545 106.029Z" fill="white"/>
<ellipse cx="470.591" cy="113.482" rx="0.994061" ry="0.993722" fill="#FA9531"/>
<ellipse cx="474.07" cy="113.482" rx="0.994061" ry="0.993722" fill="#FA9531"/>
<ellipse cx="477.549" cy="113.482" rx="0.994061" ry="0.993722" fill="#FA9531"/>
</g>
<path d="M460.999 79.5872C459.159 82.2563 461.355 83.4656 461.355 83.4656C460.328 82.7582 459.917 82.4753 457.27 83.68C458.89 81.768 456.398 80.0601 457.389 80.4311C458.352 80.7916 460.138 80.1042 460.999 79.5872Z" stroke="url(#paint19_linear_1002_3941)" stroke-linejoin="round"/>
<path d="M492.378 103.057C490.889 101.59 489.875 102.848 489.875 102.848C490.439 102.275 490.665 102.046 490.197 100.231C491.23 101.474 492.594 100.084 492.247 100.671C491.91 101.242 492.146 102.453 492.378 103.057Z" stroke="url(#paint20_linear_1002_3941)" stroke-linejoin="round"/>
<ellipse rx="1.29631" ry="1.29669" transform="matrix(0.258902 0.965904 -0.965948 0.258737 464.359 96.2252)" fill="url(#paint21_linear_1002_3941)"/>
<path d="M499.134 97.4773C498.442 97.6626 497.731 97.2522 497.546 96.5607C497.36 95.8692 497.771 95.1584 498.463 94.9731C499.154 94.7878 499.865 95.1982 500.051 95.8897C500.236 96.5812 499.826 97.292 499.134 97.4773Z" fill="url(#paint22_linear_1002_3941)"/>
<path d="M491.396 88.8901L491.892 88.7052L488.738 94.8094L488.709 94.8659L488.687 94.9256L486.956 99.6709L480.683 96.157L480.546 96.0797L480.39 96.0487L472.886 94.5512L474.621 89.7967L474.643 89.737L474.657 89.675L476.175 82.9745L476.436 83.4353L478.347 86.8146L478.77 87.5611L479.572 87.2575L483.201 85.8839L484.148 85.5252L484.643 86.4098L486.534 89.7963L486.953 90.545L487.756 90.2456L491.396 88.8901ZM492.286 87.9429L491.849 87.3561C491.544 86.9458 491.447 86.4004 491.632 85.893C491.926 85.0886 492.822 84.6716 493.627 84.9652C494.432 85.2588 494.849 86.1544 494.555 86.9588C494.311 87.6281 493.647 88.0321 492.964 87.975L492.298 87.9193L492.286 87.9429ZM477.077 81.9698L476.365 82.1377L476.371 82.1116L475.826 81.7258C475.266 81.3296 475.018 80.5932 475.263 79.9238C475.556 79.1195 476.452 78.7024 477.257 78.996C478.062 79.2897 478.479 80.1853 478.185 80.9896C478 81.497 477.575 81.8523 477.077 81.9698ZM485.277 84.9511L484.267 85.1995L483.655 84.3596C483.357 83.9508 483.264 83.4111 483.448 82.9085C483.741 82.1041 484.637 81.687 485.442 81.9807C486.247 82.2743 486.664 83.1699 486.37 83.9743C486.187 84.4769 485.768 84.8302 485.277 84.9511Z" stroke="url(#paint23_linear_1002_3941)" stroke-width="2"/>
<ellipse rx="0.786834" ry="0.786628" transform="matrix(0.93949 0.342575 -0.342782 0.939415 476.7 93.079)" fill="url(#paint24_linear_1002_3941)"/>
<ellipse rx="0.786834" ry="0.786628" transform="matrix(0.93949 0.342575 -0.342782 0.939415 481.137 94.6975)" fill="url(#paint25_linear_1002_3941)"/>
<ellipse rx="0.786834" ry="0.786628" transform="matrix(0.93949 0.342575 -0.342782 0.939415 485.078 96.1334)" fill="url(#paint26_linear_1002_3941)"/>
<g clip-path="url(#clip2_1002_3941)">
<path d="M117.792 155.084C123.39 154.163 127.181 148.88 126.259 143.284C125.338 137.688 120.054 133.899 114.456 134.82C108.858 135.741 105.067 141.024 105.989 146.619C106.91 152.215 112.195 156.005 117.792 155.084Z" fill="#FFCE00"/>
<path d="M116.245 146.732C115.462 146.732 114.75 147.064 114.276 147.586H118.19C117.715 147.064 117.027 146.732 116.245 146.732Z" fill="white"/>
<path d="M117.832 151.38C118.473 150.906 118.876 150.17 118.876 149.317C118.876 148.653 118.615 148.06 118.212 147.586H114.274C113.847 148.036 113.609 148.653 113.609 149.317C113.609 150.17 114.013 150.906 114.653 151.38C115.104 151.119 115.65 150.953 116.243 150.953C116.812 150.953 117.358 151.119 117.832 151.38Z" fill="#562912"/>
<path d="M117.832 151.38C117.381 151.119 116.835 150.953 116.242 150.953C115.649 150.953 115.103 151.095 114.653 151.38C115.103 151.712 115.649 151.901 116.242 151.901C116.835 151.901 117.381 151.712 117.832 151.38Z" fill="#CC342F"/>
<path d="M109.907 140.685C109.836 140.685 109.741 140.661 109.694 140.59C109.599 140.471 109.599 140.281 109.717 140.187C110.382 139.617 111.236 139.262 112.09 139.191C112.256 139.167 112.398 139.285 112.398 139.451C112.422 139.617 112.303 139.76 112.137 139.76C111.378 139.831 110.666 140.139 110.097 140.637C110.049 140.661 109.978 140.685 109.907 140.685Z" fill="#562912"/>
<path d="M122.314 140.685C122.243 140.685 122.172 140.661 122.125 140.613C121.555 140.115 120.82 139.807 120.061 139.736C119.895 139.712 119.776 139.57 119.8 139.428C119.823 139.262 119.966 139.143 120.108 139.167C120.986 139.238 121.816 139.594 122.48 140.163C122.599 140.258 122.623 140.447 122.504 140.566C122.48 140.637 122.409 140.685 122.314 140.685Z" fill="#562912"/>
<path d="M122.674 143.365C122.674 144.598 121.701 145.618 120.515 145.618C119.329 145.618 118.356 144.622 118.356 143.365C118.356 142.132 119.329 141.112 120.515 141.112C121.701 141.136 122.674 142.132 122.674 143.365Z" fill="white"/>
<path d="M121.418 143.365C121.418 143.886 121.015 144.313 120.493 144.313C119.971 144.313 119.568 143.886 119.568 143.365C119.568 142.843 119.971 142.416 120.493 142.416C121.015 142.416 121.418 142.843 121.418 143.365Z" fill="#562912"/>
<path d="M113.919 143.365C113.919 144.598 112.946 145.618 111.76 145.618C110.574 145.618 109.601 144.622 109.601 143.365C109.601 142.132 110.574 141.112 111.76 141.112C112.946 141.136 113.919 142.132 113.919 143.365Z" fill="white"/>
<path d="M112.663 143.365C112.663 143.886 112.26 144.313 111.738 144.313C111.216 144.313 110.813 143.886 110.813 143.365C110.813 142.843 111.216 142.416 111.738 142.416C112.26 142.416 112.663 142.843 112.663 143.365Z" fill="#562912"/>
</g>
<g clip-path="url(#clip3_1002_3941)">
<path d="M190.178 82.8124L189.875 82.9853V82.5962C189.875 82.5097 189.875 82.553 189.875 82.553L189.831 82.4233L189.701 82.1639C189.615 81.9909 189.528 81.818 189.442 81.645C189.268 81.2991 189.052 80.9533 188.835 80.6074C188.402 79.9156 187.926 79.2671 187.406 78.6618C186.367 77.4512 185.111 76.4135 183.725 75.5488C180.997 73.8626 177.749 73.0411 174.544 73.0411C171.34 73.0411 168.135 73.8626 165.407 75.4623C162.635 77.0188 160.383 79.3968 158.824 82.1639L158.478 82.8124L157.872 82.4233C156.226 81.3856 154.407 80.6074 152.502 80.2615C150.596 79.9156 148.647 79.9588 146.829 80.4777C145.919 80.7371 145.053 81.1262 144.23 81.645C143.451 82.1206 142.801 82.7691 142.238 83.5042C141.675 84.2392 141.199 85.1039 140.766 85.9686C140.549 86.4009 140.376 86.8765 140.159 87.3089C139.986 87.7412 139.813 88.2168 139.683 88.6492L139.337 89.8166L138.297 89.0383C137.171 88.1736 135.612 87.871 134.14 88.0871C132.668 88.3033 131.238 88.9951 130.242 90.076C129.246 91.1569 128.727 92.5836 128.727 94.0969C128.727 95.6101 129.246 97.1234 129.983 98.5069L130.372 99.1987L129.723 99.7175C127.427 101.533 125.868 104.3 125.479 107.197C125.046 110.094 125.782 113.121 127.644 115.369C128.553 116.493 129.723 117.401 131.022 118.093C132.321 118.784 133.75 119.217 135.223 119.519C138.211 120.081 141.329 119.952 144.36 119.476L145.486 119.303L145.616 120.384C145.703 121.249 145.659 122.07 145.573 122.849C145.486 123.627 145.313 124.405 145.14 125.183C144.75 126.697 144.187 128.167 143.451 129.507C142.585 131.15 141.545 132.706 140.333 134.133C141.112 133.917 141.892 133.657 142.671 133.398C144.533 132.706 146.352 131.885 148.041 130.847C149.73 129.809 151.289 128.599 152.675 127.215C153.368 126.524 153.974 125.745 154.537 124.967C155.1 124.189 155.576 123.324 155.836 122.503L156.442 120.773L157.568 122.2C158.781 123.757 160.47 124.924 162.332 125.616C164.194 126.264 166.273 126.437 168.265 126.091C170.257 125.745 172.206 124.967 173.808 123.757C175.411 122.546 176.71 120.946 177.446 119.044L177.922 117.833L178.788 118.741C180.131 120.125 182.123 120.86 184.115 120.989C186.15 121.119 188.229 120.73 190.135 119.995C192.04 119.217 193.816 118.049 195.201 116.536C196.587 115.023 197.497 113.121 197.843 111.088L197.93 110.699L198.319 110.613C200.268 110.181 202.044 109.186 203.516 107.759C204.945 106.376 206.028 104.56 206.461 102.614C206.937 100.669 206.721 98.5501 205.768 96.7775C204.859 94.9616 203.256 93.5348 201.481 92.5404L201.307 92.4539L201.351 92.281C201.87 90.7677 202 89.0815 201.697 87.4818C201.394 85.8821 200.615 84.3689 199.359 83.2447C198.06 82.2071 196.457 81.6018 194.812 81.5586C193.209 81.5153 191.564 81.9477 190.178 82.8124Z" fill="white"/>
<path d="M206.417 96.4317C205.378 94.5725 203.732 93.1457 201.913 92.1946C202.346 90.6381 202.389 88.9519 202 87.3954C201.61 85.7525 200.701 84.2392 199.401 83.2448C200.657 84.3257 201.437 85.8822 201.74 87.4819C202.043 89.0816 201.913 90.7678 201.393 92.281L201.35 92.454L201.523 92.5404C203.342 93.5349 204.901 94.9616 205.811 96.7775C206.763 98.5502 206.937 100.669 206.504 102.614C206.071 104.56 204.988 106.376 203.559 107.759C202.13 109.143 200.311 110.137 198.362 110.613L197.972 110.699L197.886 111.089C197.539 113.121 196.63 115.023 195.244 116.536C193.858 118.049 192.083 119.26 190.177 119.995C188.272 120.773 186.193 121.162 184.158 120.989C182.122 120.86 180.13 120.125 178.831 118.741L177.965 117.833L177.489 119.044C176.752 120.903 175.453 122.546 173.851 123.757C172.249 124.967 170.3 125.745 168.308 126.091C166.316 126.437 164.237 126.264 162.375 125.616C160.513 124.967 158.824 123.757 157.611 122.2L156.485 120.773L155.879 122.503C155.576 123.324 155.099 124.189 154.58 124.967C154.017 125.745 153.41 126.524 152.718 127.215C151.332 128.599 149.773 129.81 148.084 130.847C146.395 131.885 144.576 132.75 142.714 133.398C141.934 133.701 141.155 133.917 140.375 134.133C141.588 132.706 142.627 131.15 143.493 129.507C144.186 128.123 144.749 126.697 145.182 125.183C145.399 124.448 145.529 123.67 145.615 122.849C145.702 122.07 145.745 121.249 145.659 120.384L145.529 119.303L144.403 119.476C141.328 119.952 138.21 120.082 135.265 119.519C133.793 119.217 132.364 118.784 131.065 118.093C129.765 117.401 128.596 116.493 127.687 115.369C125.825 113.164 125.088 110.094 125.521 107.197C125.911 104.301 127.427 101.533 129.722 99.7176L130.372 99.1987L129.982 98.507C129.246 97.0802 128.726 95.5669 128.726 94.0969C128.683 92.6269 129.202 91.1569 130.242 90.076C131.238 88.9951 132.667 88.3034 134.139 88.0872C135.612 87.871 137.171 88.1737 138.297 89.0384L139.336 89.8166L139.682 88.5628C139.812 88.0872 139.986 87.6548 140.159 87.2225C140.332 86.7901 140.549 86.3145 140.765 85.8822C141.198 85.0175 141.631 84.1527 142.237 83.4177C142.8 82.6827 143.45 82.0342 144.23 81.5586C145.052 81.083 145.918 80.6939 146.828 80.3912C148.647 79.8724 150.596 79.7859 152.501 80.1751C154.406 80.5209 156.225 81.2992 157.871 82.3368L158.477 82.726L158.824 82.0774C160.383 79.3104 162.635 76.9756 165.406 75.3759C168.178 73.7762 171.339 72.9547 174.544 72.9547C177.748 72.9547 180.953 73.8194 183.725 75.4624C185.11 76.2839 186.323 77.3215 187.406 78.5753C187.925 79.1806 188.402 79.8292 188.835 80.5209C189.051 80.8668 189.268 81.2127 189.441 81.5586C189.528 81.7315 189.614 81.9045 189.701 82.0774L189.831 82.3368L189.874 82.4665C189.874 82.4665 189.874 82.4666 189.874 82.5098V82.8989L190.177 82.726C191.563 81.9045 193.209 81.4289 194.811 81.4721C196.457 81.5154 198.059 82.1207 199.358 83.1583C198.102 82.0774 196.5 81.3857 194.811 81.256C193.209 81.1262 191.606 81.4721 190.177 82.2071L190.134 82.1207L190.004 81.818C189.917 81.6451 189.831 81.4289 189.744 81.256C189.571 80.8668 189.354 80.5209 189.138 80.1751C188.705 79.4401 188.228 78.7915 187.709 78.143C186.626 76.8459 185.37 75.7218 183.984 74.8138C181.213 73.1277 177.878 72.1332 174.544 72.0468C171.166 71.9603 167.788 72.7385 164.8 74.3815C162.028 75.8947 159.69 78.143 158.001 80.7804C156.399 79.7859 154.623 79.0509 152.761 78.6618C150.682 78.2295 148.43 78.2295 146.352 78.7915C145.312 79.0942 144.273 79.5265 143.363 80.0886C142.367 80.6939 141.501 81.4721 140.852 82.3368C140.159 83.2016 139.639 84.1527 139.163 85.1039C138.946 85.5795 138.73 86.0551 138.513 86.5307C138.47 86.6604 138.383 86.7901 138.34 86.9631C136.954 86.2713 135.352 86.0551 133.836 86.2713C131.931 86.5307 130.155 87.3954 128.813 88.8222C128.163 89.514 127.6 90.3787 127.254 91.2866C126.95 92.1513 126.777 93.1457 126.777 94.0969C126.777 95.7399 127.254 97.2964 127.903 98.6799C125.521 100.798 123.919 103.738 123.486 106.895C123.226 108.581 123.313 110.354 123.746 112.04C124.179 113.726 124.958 115.326 126.084 116.666C127.167 118.006 128.596 119.13 130.112 119.909C131.628 120.73 133.273 121.249 134.919 121.552C137.82 122.114 140.722 122.07 143.58 121.724C143.58 122.027 143.537 122.287 143.493 122.589C143.407 123.281 143.277 123.929 143.104 124.621C142.757 125.962 142.237 127.259 141.588 128.512C140.332 131.02 138.513 133.268 136.434 135.171L133.663 137.722L137.344 136.987C139.423 136.598 141.458 136.035 143.45 135.3C145.442 134.565 147.348 133.658 149.166 132.533C150.985 131.409 152.674 130.069 154.147 128.512C154.883 127.734 155.576 126.913 156.182 126.005C156.485 125.529 156.788 125.01 157.091 124.492C158.391 125.745 159.993 126.74 161.725 127.302C163.934 128.037 166.316 128.167 168.611 127.777C170.906 127.388 173.071 126.437 174.89 125.01C176.406 123.843 177.705 122.287 178.571 120.557C179.221 121.033 179.914 121.422 180.693 121.724C181.819 122.157 182.945 122.373 184.114 122.416C186.41 122.546 188.705 122.07 190.783 121.206C192.862 120.341 194.811 119.001 196.283 117.271C197.712 115.628 198.665 113.639 199.055 111.478C201.047 110.916 202.866 109.791 204.295 108.321C205.811 106.765 206.893 104.776 207.326 102.614C207.759 100.626 207.456 98.334 206.417 96.4317Z" fill="#1A1A1A"/>
</g>
<path d="M155.772 96.174L155.756 107.769L153.212 108.475L149.064 101.375L149.081 109.623L146.557 110.34L140.664 100.369L142.977 99.7272L147.195 107.556L147.062 98.5928L149.467 97.9249L153.842 105.66L153.444 96.8204L155.772 96.174ZM164.003 105.629C163.18 105.857 162.391 105.883 161.633 105.705C160.872 105.518 160.209 105.143 159.643 104.581C159.087 104.016 158.688 103.296 158.445 102.423C158.203 101.549 158.179 100.725 158.373 99.9518C158.578 99.1753 158.965 98.5145 159.533 97.9693C160.098 97.4138 160.792 97.0219 161.614 96.7935C162.436 96.5652 163.233 96.5433 164.004 96.7278C164.772 96.902 165.439 97.2703 166.005 97.8327C166.581 98.3923 166.99 99.1088 167.233 99.9824C167.476 100.856 167.489 101.682 167.274 102.462C167.069 103.238 166.679 103.906 166.104 104.464C165.536 105.009 164.835 105.397 164.003 105.629ZM163.48 103.748C163.871 103.639 164.21 103.446 164.498 103.166C164.793 102.874 164.99 102.509 165.09 102.072C165.19 101.635 165.164 101.144 165.013 100.599C164.787 99.787 164.399 99.2251 163.847 98.9134C163.303 98.5884 162.723 98.5116 162.106 98.6828C161.489 98.8541 161.032 99.2192 160.733 99.7781C160.442 100.324 160.409 101.003 160.635 101.815C160.86 102.627 161.235 103.198 161.759 103.528C162.29 103.846 162.863 103.919 163.48 103.748ZM179.47 91.9848L179.345 101.219L177.017 101.865L173.802 96.3316L173.903 102.73L171.56 103.381L166.674 95.538L168.863 94.9301L172.181 101.016L172.008 94.0568L174.29 93.4232L177.696 99.468L177.404 92.5584L179.47 91.9848ZM182.76 88.4807L184.582 95.9951L182.763 96.5003L180.432 89.1272L182.76 88.4807ZM184.721 99.8422C184.33 99.9506 183.974 99.9223 183.651 99.7573C183.336 99.5792 183.128 99.3102 183.028 98.9505C182.929 98.5908 182.969 98.2585 183.15 97.9536C183.338 97.6356 183.628 97.4224 184.018 97.314C184.399 97.2084 184.746 97.2446 185.062 97.4228C185.374 97.5907 185.58 97.8545 185.68 98.2142C185.78 98.5739 185.741 98.9113 185.563 99.2265C185.382 99.5313 185.101 99.7366 184.721 99.8422Z" fill="#050505"/>
<path d="M285.344 248.589C285.259 247.908 285.335 247.28 285.572 246.706C285.816 246.125 286.183 245.653 286.675 245.289C287.173 244.917 287.752 244.69 288.414 244.608C289.188 244.511 289.891 244.625 290.523 244.949C291.154 245.273 291.63 245.771 291.949 246.443L290.352 246.643C290.151 246.332 289.895 246.112 289.584 245.983C289.279 245.853 288.937 245.812 288.56 245.859C288.157 245.91 287.808 246.051 287.515 246.282C287.227 246.506 287.015 246.801 286.88 247.168C286.751 247.533 286.715 247.948 286.773 248.411C286.83 248.867 286.967 249.26 287.183 249.589C287.404 249.911 287.683 250.148 288.018 250.301C288.358 250.446 288.73 250.494 289.134 250.443C289.511 250.396 289.831 250.272 290.095 250.071C290.365 249.863 290.558 249.583 290.676 249.233L292.273 249.033C292.13 249.77 291.792 250.373 291.26 250.843C290.733 251.305 290.08 251.585 289.299 251.683C288.638 251.765 288.02 251.691 287.447 251.461C286.88 251.222 286.407 250.855 286.029 250.358C285.658 249.86 285.43 249.271 285.344 248.589ZM296.131 245.104C296.548 245.052 296.93 245.098 297.277 245.243C297.624 245.381 297.909 245.618 298.132 245.952C298.361 246.28 298.506 246.692 298.569 247.188L298.972 250.413L297.583 250.586L297.203 247.55C297.148 247.113 296.997 246.793 296.75 246.589C296.502 246.378 296.189 246.296 295.812 246.343C295.429 246.391 295.139 246.548 294.944 246.815C294.755 247.073 294.687 247.421 294.742 247.858L295.122 250.894L293.733 251.068L292.814 243.725L294.203 243.551L294.52 246.082C294.669 245.821 294.884 245.606 295.165 245.437C295.445 245.26 295.767 245.15 296.131 245.104ZM305.045 246.741C305.069 246.939 305.078 247.12 305.072 247.282L301.053 247.784C301.136 248.177 301.314 248.471 301.587 248.665C301.859 248.859 302.175 248.934 302.532 248.889C303.048 248.825 303.387 248.557 303.55 248.087L305.048 247.899C304.956 248.449 304.706 248.923 304.299 249.323C303.892 249.717 303.36 249.955 302.706 250.037C302.176 250.103 301.686 250.047 301.233 249.868C300.787 249.682 300.417 249.389 300.125 248.989C299.84 248.588 299.662 248.106 299.592 247.544C299.521 246.975 299.574 246.461 299.752 246.002C299.93 245.543 300.212 245.172 300.6 244.888C300.988 244.604 301.453 244.429 301.995 244.361C302.518 244.296 302.998 244.35 303.437 244.523C303.882 244.696 304.243 244.977 304.52 245.365C304.803 245.747 304.977 246.205 305.045 246.741ZM303.556 246.524C303.505 246.168 303.34 245.899 303.062 245.719C302.784 245.532 302.462 245.461 302.099 245.507C301.755 245.55 301.477 245.692 301.265 245.934C301.059 246.168 300.953 246.473 300.946 246.85L303.556 246.524ZM305.716 246.778C305.645 246.209 305.699 245.698 305.877 245.246C306.055 244.787 306.334 244.416 306.716 244.134C307.096 243.844 307.551 243.666 308.08 243.6C308.761 243.515 309.345 243.617 309.831 243.905C310.323 244.186 310.684 244.625 310.913 245.221L309.415 245.409C309.306 245.18 309.147 245.012 308.938 244.904C308.736 244.788 308.496 244.747 308.218 244.782C307.821 244.832 307.525 245.017 307.33 245.337C307.134 245.65 307.069 246.071 307.135 246.601C307.2 247.123 307.367 247.515 307.635 247.778C307.902 248.033 308.234 248.136 308.631 248.086C309.193 248.016 309.529 247.719 309.638 247.195L311.137 247.007C311.059 247.622 310.817 248.132 310.411 248.539C310.005 248.946 309.465 249.192 308.79 249.276C308.261 249.342 307.777 249.285 307.338 249.105C306.898 248.918 306.535 248.627 306.251 248.233C305.966 247.832 305.787 247.347 305.716 246.778ZM315.641 248.329L313.483 246.22L313.776 248.562L312.386 248.736L311.468 241.393L312.857 241.219L313.38 245.397L314.933 242.834L316.739 242.608L314.663 245.669L317.447 248.103L315.641 248.329ZM319.096 240.741L319.537 245.554L318.366 245.7L317.597 240.929L319.096 240.741ZM319.271 247.945C319.02 247.977 318.802 247.927 318.618 247.795C318.439 247.656 318.335 247.471 318.306 247.24C318.277 247.008 318.333 246.806 318.472 246.634C318.618 246.455 318.816 246.349 319.068 246.318C319.313 246.287 319.524 246.342 319.703 246.48C319.881 246.613 319.984 246.795 320.013 247.026C320.042 247.258 319.987 247.463 319.848 247.641C319.708 247.813 319.516 247.915 319.271 247.945Z" fill="#050505"/>
<path d="M279.885 246.246C280.194 245.754 280.843 245.606 281.335 245.915C281.827 246.224 281.975 246.873 281.666 247.365L277.748 253.597L275.967 252.478L279.885 246.246Z" fill="#FA9531"/>
<path d="M278.868 251.816L277.749 253.596L274.186 251.358C273.694 251.049 273.546 250.4 273.855 249.909C274.165 249.417 274.814 249.269 275.306 249.578L278.868 251.816Z" fill="#FA9531"/>
<path d="M420.181 202.035C419.827 201.447 419.642 200.843 419.626 200.222C419.612 199.592 419.757 199.011 420.059 198.479C420.363 197.938 420.801 197.496 421.373 197.152C422.041 196.75 422.73 196.569 423.439 196.609C424.148 196.649 424.784 196.912 425.349 197.397L423.969 198.227C423.66 198.024 423.337 197.927 423 197.935C422.668 197.94 422.34 198.041 422.014 198.236C421.665 198.446 421.404 198.716 421.23 199.047C421.057 199.368 420.984 199.724 421.008 200.114C421.038 200.5 421.174 200.893 421.415 201.293C421.652 201.687 421.936 201.991 422.267 202.204C422.6 202.408 422.95 202.512 423.319 202.517C423.689 202.511 424.049 202.404 424.397 202.194C424.723 201.999 424.965 201.755 425.125 201.465C425.287 201.165 425.35 200.831 425.316 200.463L426.695 199.633C426.863 200.364 426.799 201.053 426.503 201.698C426.208 202.334 425.724 202.855 425.05 203.26C424.479 203.604 423.885 203.786 423.267 203.808C422.652 203.82 422.071 203.676 421.524 203.375C420.983 203.07 420.535 202.624 420.181 202.035ZM428.629 194.478C428.989 194.262 429.357 194.149 429.733 194.141C430.106 194.126 430.462 194.227 430.802 194.443C431.144 194.649 431.444 194.967 431.702 195.395L433.379 198.179L432.179 198.901L430.601 196.279C430.374 195.902 430.106 195.671 429.797 195.584C429.485 195.492 429.166 195.544 428.84 195.74C428.509 195.939 428.308 196.2 428.237 196.523C428.169 196.836 428.249 197.181 428.476 197.558L430.054 200.18L428.854 200.901L425.037 194.562L426.237 193.84L427.552 196.024C427.583 195.726 427.692 195.442 427.88 195.174C428.065 194.899 428.315 194.667 428.629 194.478ZM437.442 192.362C437.545 192.533 437.626 192.694 437.686 192.845L434.216 194.933C434.45 195.259 434.732 195.455 435.06 195.522C435.389 195.589 435.707 195.53 436.015 195.344C436.461 195.076 436.663 194.694 436.621 194.198L437.915 193.419C438.053 193.959 438.017 194.494 437.807 195.024C437.594 195.549 437.205 195.982 436.639 196.322C436.182 196.597 435.711 196.745 435.225 196.765C434.741 196.776 434.285 196.657 433.856 196.41C433.432 196.159 433.074 195.791 432.782 195.305C432.486 194.814 432.327 194.323 432.303 193.831C432.28 193.34 432.388 192.886 432.627 192.469C432.867 192.053 433.221 191.704 433.689 191.422C434.14 191.15 434.602 191.005 435.073 190.986C435.549 190.964 435.993 191.074 436.404 191.317C436.817 191.551 437.163 191.899 437.442 192.362ZM435.993 192.767C435.801 192.462 435.542 192.283 435.215 192.231C434.884 192.173 434.562 192.239 434.248 192.428C433.951 192.606 433.755 192.849 433.659 193.156C433.566 193.453 433.592 193.775 433.739 194.123L435.993 192.767ZM438.071 192.123C437.775 191.632 437.617 191.144 437.597 190.658C437.573 190.166 437.678 189.714 437.912 189.301C438.143 188.882 438.486 188.536 438.943 188.261C439.532 187.907 440.107 187.763 440.668 187.83C441.232 187.887 441.739 188.142 442.191 188.594L440.897 189.373C440.704 189.208 440.491 189.119 440.257 189.104C440.024 189.081 439.788 189.141 439.548 189.285C439.206 189.491 439.01 189.78 438.961 190.152C438.909 190.518 439.021 190.929 439.296 191.386C439.568 191.837 439.879 192.128 440.23 192.259C440.578 192.385 440.923 192.344 441.266 192.138C441.752 191.846 441.938 191.438 441.825 190.915L443.119 190.136C443.297 190.729 443.283 191.294 443.077 191.831C442.871 192.367 442.476 192.81 441.894 193.161C441.437 193.436 440.971 193.58 440.496 193.593C440.018 193.601 439.569 193.482 439.149 193.237C438.726 192.986 438.366 192.615 438.071 192.123ZM447.773 189.519L444.945 188.466L446.162 190.488L444.962 191.21L441.145 184.87L442.345 184.148L444.517 187.755L444.898 184.783L446.458 183.844L445.801 187.484L449.332 188.58L447.773 189.519ZM447.855 181.183L450.209 185.403L449.198 186.012L446.561 181.962L447.855 181.183ZM450.936 187.697C450.719 187.827 450.5 187.87 450.278 187.825C450.058 187.77 449.888 187.643 449.768 187.443C449.648 187.243 449.616 187.036 449.674 186.822C449.735 186.599 449.873 186.422 450.091 186.292C450.302 186.165 450.517 186.128 450.737 186.183C450.953 186.232 451.121 186.356 451.242 186.556C451.362 186.756 451.395 186.966 451.34 187.185C451.282 187.399 451.148 187.57 450.936 187.697Z" fill="#050505"/>
<path d="M414.239 202.107C414.322 201.532 414.856 201.134 415.431 201.217C416.005 201.3 416.404 201.834 416.321 202.408L415.266 209.693L413.185 209.391L414.239 202.107Z" fill="#FA9531"/>
<path d="M415.569 207.611L415.268 209.692L411.104 209.09C410.529 209.006 410.131 208.473 410.214 207.898C410.297 207.324 410.83 206.925 411.405 207.008L415.569 207.611Z" fill="#FA9531"/>
<path d="M170.966 258.346C170.935 257.66 171.06 257.04 171.341 256.487C171.629 255.926 172.033 255.484 172.552 255.16C173.077 254.829 173.673 254.648 174.338 254.617C175.118 254.581 175.809 254.75 176.414 255.123C177.018 255.495 177.453 256.029 177.719 256.724L176.111 256.798C175.935 256.473 175.697 256.233 175.397 256.08C175.103 255.927 174.766 255.859 174.386 255.876C173.98 255.895 173.622 256.008 173.311 256.216C173.006 256.417 172.772 256.695 172.608 257.049C172.451 257.404 172.383 257.814 172.405 258.28C172.426 258.739 172.531 259.142 172.72 259.487C172.916 259.825 173.175 260.083 173.497 260.262C173.825 260.434 174.192 260.51 174.599 260.492C174.978 260.474 175.307 260.376 175.586 260.196C175.871 260.009 176.086 259.746 176.23 259.406L177.839 259.332C177.638 260.055 177.254 260.63 176.687 261.056C176.125 261.476 175.452 261.704 174.666 261.74C174 261.77 173.39 261.648 172.837 261.373C172.29 261.091 171.848 260.688 171.51 260.163C171.179 259.638 170.998 259.032 170.966 258.346ZM181.993 255.717C182.412 255.698 182.79 255.774 183.125 255.945C183.459 256.11 183.725 256.368 183.921 256.72C184.124 257.064 184.236 257.486 184.259 257.986L184.409 261.232L183.01 261.296L182.87 258.24C182.849 257.8 182.724 257.469 182.494 257.246C182.263 257.016 181.958 256.91 181.578 256.927C181.192 256.945 180.891 257.079 180.675 257.329C180.466 257.572 180.372 257.914 180.392 258.353L180.533 261.41L179.134 261.474L178.794 254.082L180.193 254.018L180.31 256.565C180.479 256.317 180.71 256.12 181.004 255.973C181.297 255.819 181.627 255.734 181.993 255.717ZM190.75 258.048C190.76 258.247 190.755 258.428 190.735 258.589L186.69 258.775C186.741 259.173 186.895 259.479 187.152 259.695C187.409 259.91 187.717 260.009 188.077 259.992C188.596 259.969 188.956 259.728 189.155 259.272L190.663 259.203C190.528 259.743 190.242 260.197 189.805 260.564C189.368 260.924 188.819 261.12 188.16 261.15C187.627 261.174 187.143 261.08 186.706 260.866C186.275 260.646 185.93 260.325 185.67 259.903C185.417 259.481 185.278 258.987 185.252 258.42C185.225 257.848 185.319 257.34 185.532 256.896C185.745 256.452 186.056 256.104 186.465 255.852C186.874 255.6 187.351 255.461 187.897 255.436C188.424 255.412 188.898 255.503 189.322 255.711C189.752 255.918 190.089 256.226 190.335 256.635C190.587 257.037 190.726 257.508 190.75 258.048ZM189.284 257.715C189.26 257.355 189.117 257.075 188.855 256.873C188.591 256.665 188.277 256.57 187.91 256.586C187.564 256.602 187.276 256.722 187.046 256.947C186.822 257.164 186.693 257.46 186.656 257.835L189.284 257.715ZM191.417 258.137C191.391 257.564 191.484 257.06 191.698 256.623C191.911 256.179 192.219 255.831 192.621 255.579C193.023 255.321 193.49 255.179 194.023 255.154C194.709 255.123 195.283 255.27 195.745 255.596C196.213 255.915 196.539 256.38 196.72 256.993L195.212 257.062C195.121 256.826 194.976 256.646 194.776 256.521C194.584 256.39 194.347 256.331 194.068 256.344C193.668 256.362 193.358 256.523 193.139 256.827C192.919 257.124 192.821 257.539 192.846 258.072C192.87 258.598 193.005 259.002 193.252 259.284C193.498 259.56 193.821 259.688 194.22 259.67C194.787 259.644 195.145 259.374 195.294 258.86L196.803 258.791C196.677 259.397 196.396 259.887 195.959 260.261C195.523 260.635 194.965 260.837 194.286 260.868C193.753 260.893 193.275 260.798 192.851 260.584C192.427 260.363 192.089 260.045 191.836 259.63C191.583 259.207 191.443 258.71 191.417 258.137ZM201.19 260.461L199.203 258.19L199.312 260.547L197.913 260.612L197.573 253.219L198.972 253.155L199.165 257.361L200.915 254.928L202.733 254.844L200.424 257.733L203.008 260.378L201.19 260.461ZM205.229 253.168L205.291 258L204.112 258.054L203.721 253.237L205.229 253.168ZM204.839 260.364C204.586 260.375 204.373 260.308 204.199 260.163C204.032 260.01 203.943 259.817 203.932 259.584C203.922 259.351 203.993 259.154 204.145 258.994C204.305 258.826 204.511 258.737 204.764 258.725C205.01 258.714 205.217 258.785 205.384 258.937C205.551 259.083 205.64 259.272 205.65 259.505C205.661 259.738 205.59 259.939 205.438 260.106C205.285 260.266 205.085 260.352 204.839 260.364Z" fill="#050505"/>
<path d="M165.706 255.581C166.053 255.116 166.711 255.019 167.178 255.365C167.644 255.712 167.74 256.371 167.394 256.837L162.999 262.742L161.311 261.487L165.706 255.581Z" fill="#FA9531"/>
<path d="M164.255 261.055L163 262.742L159.624 260.232C159.158 259.885 159.061 259.226 159.408 258.76C159.754 258.294 160.413 258.198 160.879 258.544L164.255 261.055Z" fill="#FA9531"/>
<defs>
<filter id="filter0_d_1002_3941" x="0" y="0" width="563" height="378" filterUnits="userSpaceOnUse" color-interpolation-filters="sRGB">
<feFlood flood-opacity="0" result="BackgroundImageFix"/>
<feColorMatrix in="SourceAlpha" type="matrix" values="0 0 0 0 0 0 0 0 0 0 0 0 0 0 0 0 0 0 127 0" result="hardAlpha"/>
<feOffset dy="4"/>
<feGaussianBlur stdDeviation="18"/>
<feColorMatrix type="matrix" values="0 0 0 0 0 0 0 0 0 0 0 0 0 0 0 0 0 0 0.12 0"/>
<feBlend mode="normal" in2="BackgroundImageFix" result="effect1_dropShadow_1002_3941"/>
<feBlend mode="normal" in="SourceGraphic" in2="effect1_dropShadow_1002_3941" result="shape"/>
</filter>
<filter id="filter1_d_1002_3941" x="331.485" y="262.577" width="74.6527" height="74.6443" filterUnits="userSpaceOnUse" color-interpolation-filters="sRGB">
<feFlood flood-opacity="0" result="BackgroundImageFix"/>
<feColorMatrix in="SourceAlpha" type="matrix" values="0 0 0 0 0 0 0 0 0 0 0 0 0 0 0 0 0 0 127 0" result="hardAlpha"/>
<feOffset dy="4"/>
<feGaussianBlur stdDeviation="12.5"/>
<feColorMatrix type="matrix" values="0 0 0 0 0 0 0 0 0 0 0 0 0 0 0 0 0 0 0.15 0"/>
<feBlend mode="normal" in2="BackgroundImageFix" result="effect1_dropShadow_1002_3941"/>
<feBlend mode="normal" in="SourceGraphic" in2="effect1_dropShadow_1002_3941" result="shape"/>
</filter>
<filter id="filter2_d_1002_3941" x="265.745" y="262.577" width="74.6527" height="74.6443" filterUnits="userSpaceOnUse" color-interpolation-filters="sRGB">
<feFlood flood-opacity="0" result="BackgroundImageFix"/>
<feColorMatrix in="SourceAlpha" type="matrix" values="0 0 0 0 0 0 0 0 0 0 0 0 0 0 0 0 0 0 127 0" result="hardAlpha"/>
<feOffset dy="4"/>
<feGaussianBlur stdDeviation="12.5"/>
<feColorMatrix type="matrix" values="0 0 0 0 0 0 0 0 0 0 0 0 0 0 0 0 0 0 0.15 0"/>
<feBlend mode="normal" in2="BackgroundImageFix" result="effect1_dropShadow_1002_3941"/>
<feBlend mode="normal" in="SourceGraphic" in2="effect1_dropShadow_1002_3941" result="shape"/>
</filter>
<filter id="filter3_d_1002_3941" x="233.36" y="262.577" width="74.6527" height="74.6443" filterUnits="userSpaceOnUse" color-interpolation-filters="sRGB">
<feFlood flood-opacity="0" result="BackgroundImageFix"/>
<feColorMatrix in="SourceAlpha" type="matrix" values="0 0 0 0 0 0 0 0 0 0 0 0 0 0 0 0 0 0 127 0" result="hardAlpha"/>
<feOffset dy="4"/>
<feGaussianBlur stdDeviation="12.5"/>
<feColorMatrix type="matrix" values="0 0 0 0 0 0 0 0 0 0 0 0 0 0 0 0 0 0 0.15 0"/>
<feBlend mode="normal" in2="BackgroundImageFix" result="effect1_dropShadow_1002_3941"/>
<feBlend mode="normal" in="SourceGraphic" in2="effect1_dropShadow_1002_3941" result="shape"/>
</filter>
<filter id="filter4_d_1002_3941" x="364.356" y="262.577" width="74.6527" height="74.6443" filterUnits="userSpaceOnUse" color-interpolation-filters="sRGB">
<feFlood flood-opacity="0" result="BackgroundImageFix"/>
<feColorMatrix in="SourceAlpha" type="matrix" values="0 0 0 0 0 0 0 0 0 0 0 0 0 0 0 0 0 0 127 0" result="hardAlpha"/>
<feOffset dy="4"/>
<feGaussianBlur stdDeviation="12.5"/>
<feColorMatrix type="matrix" values="0 0 0 0 0 0 0 0 0 0 0 0 0 0 0 0 0 0 0.15 0"/>
<feBlend mode="normal" in2="BackgroundImageFix" result="effect1_dropShadow_1002_3941"/>
<feBlend mode="normal" in="SourceGraphic" in2="effect1_dropShadow_1002_3941" result="shape"/>
</filter>
<filter id="filter5_d_1002_3941" x="397.226" y="262.577" width="74.6527" height="74.6443" filterUnits="userSpaceOnUse" color-interpolation-filters="sRGB">
<feFlood flood-opacity="0" result="BackgroundImageFix"/>
<feColorMatrix in="SourceAlpha" type="matrix" values="0 0 0 0 0 0 0 0 0 0 0 0 0 0 0 0 0 0 127 0" result="hardAlpha"/>
<feOffset dy="4"/>
<feGaussianBlur stdDeviation="12.5"/>
<feColorMatrix type="matrix" values="0 0 0 0 0 0 0 0 0 0 0 0 0 0 0 0 0 0 0.15 0"/>
<feBlend mode="normal" in2="BackgroundImageFix" result="effect1_dropShadow_1002_3941"/>
<feBlend mode="normal" in="SourceGraphic" in2="effect1_dropShadow_1002_3941" result="shape"/>
</filter>
<filter id="filter6_d_1002_3941" x="298.615" y="262.577" width="74.6527" height="74.6443" filterUnits="userSpaceOnUse" color-interpolation-filters="sRGB">
<feFlood flood-opacity="0" result="BackgroundImageFix"/>
<feColorMatrix in="SourceAlpha" type="matrix" values="0 0 0 0 0 0 0 0 0 0 0 0 0 0 0 0 0 0 127 0" result="hardAlpha"/>
<feOffset dy="4"/>
<feGaussianBlur stdDeviation="12.5"/>
<feColorMatrix type="matrix" values="0 0 0 0 0 0 0 0 0 0 0 0 0 0 0 0 0 0 0.15 0"/>
<feBlend mode="normal" in2="BackgroundImageFix" result="effect1_dropShadow_1002_3941"/>
<feBlend mode="normal" in="SourceGraphic" in2="effect1_dropShadow_1002_3941" result="shape"/>
</filter>
<filter id="filter7_d_1002_3941" x="433.663" y="77.0791" width="80.8159" height="80.8054" filterUnits="userSpaceOnUse" color-interpolation-filters="sRGB">
<feFlood flood-opacity="0" result="BackgroundImageFix"/>
<feColorMatrix in="SourceAlpha" type="matrix" values="0 0 0 0 0 0 0 0 0 0 0 0 0 0 0 0 0 0 127 0" result="hardAlpha"/>
<feOffset dy="4"/>
<feGaussianBlur stdDeviation="12.5"/>
<feColorMatrix type="matrix" values="0 0 0 0 0 0 0 0 0 0 0 0 0 0 0 0 0 0 0.15 0"/>
<feBlend mode="normal" in2="BackgroundImageFix" result="effect1_dropShadow_1002_3941"/>
<feBlend mode="normal" in="SourceGraphic" in2="effect1_dropShadow_1002_3941" result="shape"/>
</filter>
<filter id="filter8_d_1002_3941" x="456.616" y="100.029" width="35.1594" height="37.887" filterUnits="userSpaceOnUse" color-interpolation-filters="sRGB">
<feFlood flood-opacity="0" result="BackgroundImageFix"/>
<feColorMatrix in="SourceAlpha" type="matrix" values="0 0 0 0 0 0 0 0 0 0 0 0 0 0 0 0 0 0 127 0" result="hardAlpha"/>
<feOffset dy="4"/>
<feGaussianBlur stdDeviation="5"/>
<feColorMatrix type="matrix" values="0 0 0 0 0 0 0 0 0 0 0 0 0 0 0 0 0 0 0.1 0"/>
<feBlend mode="normal" in2="BackgroundImageFix" result="effect1_dropShadow_1002_3941"/>
<feBlend mode="normal" in="SourceGraphic" in2="effect1_dropShadow_1002_3941" result="shape"/>
</filter>
<linearGradient id="paint0_linear_1002_3941" x1="360.575" y1="286.899" x2="376.673" y2="305.048" gradientUnits="userSpaceOnUse">
<stop stop-color="#FF5515"/>
<stop offset="1" stop-color="#E4470C"/>
</linearGradient>
<linearGradient id="paint1_linear_1002_3941" x1="296.368" y1="285.621" x2="309.143" y2="306.068" gradientUnits="userSpaceOnUse">
<stop stop-color="#00C275"/>
<stop offset="1" stop-color="#00A966"/>
</linearGradient>
<linearGradient id="paint2_linear_1002_3941" x1="263.217" y1="285.877" x2="276.247" y2="305.302" gradientUnits="userSpaceOnUse">
<stop stop-color="#10494D"/>
<stop offset="1" stop-color="#0D3F43"/>
</linearGradient>
<linearGradient id="paint3_linear_1002_3941" x1="392.934" y1="288.688" x2="408.01" y2="305.303" gradientUnits="userSpaceOnUse">
<stop stop-color="#0E8DEA"/>
<stop offset="1" stop-color="#097BCE"/>
</linearGradient>
<linearGradient id="paint4_linear_1002_3941" x1="426.827" y1="287.155" x2="441.903" y2="305.814" gradientUnits="userSpaceOnUse">
<stop stop-color="#1D2B95"/>
<stop offset="1" stop-color="#15217C"/>
</linearGradient>
<linearGradient id="paint5_linear_1002_3941" x1="328.216" y1="287.155" x2="343.292" y2="305.814" gradientUnits="userSpaceOnUse">
<stop stop-color="#161616"/>
<stop offset="1"/>
</linearGradient>
<linearGradient id="paint6_linear_1002_3941" x1="475.098" y1="120.309" x2="78.6006" y2="120.309" gradientUnits="userSpaceOnUse">
<stop stop-color="white"/>
<stop offset="0.583333" stop-color="#212121"/>
</linearGradient>
<linearGradient id="paint7_linear_1002_3941" x1="85.822" y1="262.528" x2="455.881" y2="174.331" gradientUnits="userSpaceOnUse">
<stop stop-color="#00AA66"/>
<stop offset="0.760417" stop-color="#1BC481"/>
<stop offset="1" stop-color="#1EC784" stop-opacity="0"/>
</linearGradient>
<linearGradient id="paint8_linear_1002_3941" x1="85.822" y1="274.851" x2="476.223" y2="180.602" gradientUnits="userSpaceOnUse">
<stop stop-color="#E4470C"/>
<stop offset="0.0001" stop-color="#E4470C"/>
<stop offset="0.760417" stop-color="#FE5515"/>
<stop offset="1" stop-color="#FE5515" stop-opacity="0"/>
</linearGradient>
<linearGradient id="paint9_linear_1002_3941" x1="85.822" y1="279.985" x2="441.971" y2="192.551" gradientUnits="userSpaceOnUse">
<stop stop-color="#087ACE"/>
<stop offset="0.0001" stop-color="#087ACE"/>
<stop offset="0.760417" stop-color="#0E8DEA"/>
<stop offset="1" stop-color="#0E8DEA" stop-opacity="0"/>
</linearGradient>
<linearGradient id="paint10_linear_1002_3941" x1="85.822" y1="287.173" x2="427.947" y2="202.55" gradientUnits="userSpaceOnUse">
<stop stop-color="#15217C"/>
<stop offset="0.0001" stop-color="#1D2B95"/>
<stop offset="0.765625" stop-color="#1D2B95"/>
<stop offset="0.9999" stop-color="#1D2B95" stop-opacity="0.0434783"/>
<stop offset="1" stop-color="#15217D" stop-opacity="0"/>
</linearGradient>
<linearGradient id="paint11_linear_1002_3941" x1="85.8217" y1="252.26" x2="476.222" y2="158.011" gradientUnits="userSpaceOnUse">
<stop stop-color="#0D3F43"/>
<stop offset="0.760417" stop-color="#10484C"/>
<stop offset="1" stop-color="#10484C" stop-opacity="0"/>
</linearGradient>
<linearGradient id="paint12_linear_1002_3941" x1="85.8198" y1="263.555" x2="461.371" y2="168.987" gradientUnits="userSpaceOnUse">
<stop/>
<stop offset="0.760417" stop-color="#161616"/>
<stop offset="1" stop-color="#161616" stop-opacity="0"/>
</linearGradient>
<linearGradient id="paint13_linear_1002_3941" x1="276.093" y1="121.915" x2="276.364" y2="271.255" gradientUnits="userSpaceOnUse">
<stop stop-color="#F9A440" stop-opacity="0.35"/>
<stop offset="1" stop-color="#FFBB39" stop-opacity="0.03"/>
</linearGradient>
<linearGradient id="paint14_linear_1002_3941" x1="77.0879" y1="195.819" x2="475.098" y2="195.819" gradientUnits="userSpaceOnUse">
<stop stop-color="#FFBD39"/>
<stop offset="1" stop-color="#FA9531"/>
<stop offset="1" stop-color="#FA9531"/>
</linearGradient>
<linearGradient id="paint15_linear_1002_3941" x1="420.172" y1="184.487" x2="429.416" y2="184.487" gradientUnits="userSpaceOnUse">
<stop stop-color="#FFBD39"/>
<stop offset="1" stop-color="#FA9531"/>
<stop offset="1" stop-color="#FA9531"/>
</linearGradient>
<linearGradient id="paint16_linear_1002_3941" x1="291.23" y1="232.748" x2="300.475" y2="232.748" gradientUnits="userSpaceOnUse">
<stop stop-color="#FFBD39"/>
<stop offset="1" stop-color="#FA9531"/>
<stop offset="1" stop-color="#FA9531"/>
</linearGradient>
<linearGradient id="paint17_linear_1002_3941" x1="180.293" y1="245.071" x2="189.538" y2="245.071" gradientUnits="userSpaceOnUse">
<stop stop-color="#FFBD39"/>
<stop offset="1" stop-color="#FA9531"/>
<stop offset="1" stop-color="#FA9531"/>
</linearGradient>
<linearGradient id="paint18_linear_1002_3941" x1="463.911" y1="101.93" x2="485.653" y2="122.051" gradientUnits="userSpaceOnUse">
<stop stop-color="#FFBC39"/>
<stop offset="1" stop-color="#F79944"/>
</linearGradient>
<linearGradient id="paint19_linear_1002_3941" x1="460.911" y1="79.5267" x2="457.799" y2="84.0446" gradientUnits="userSpaceOnUse">
<stop stop-color="#FFBD39"/>
<stop offset="1" stop-color="#FA9531"/>
<stop offset="1" stop-color="#FA9531"/>
</linearGradient>
<linearGradient id="paint20_linear_1002_3941" x1="492.426" y1="103.008" x2="489.908" y2="100.524" gradientUnits="userSpaceOnUse">
<stop stop-color="#FFBD39"/>
<stop offset="1" stop-color="#FA9531"/>
<stop offset="1" stop-color="#FA9531"/>
</linearGradient>
<linearGradient id="paint21_linear_1002_3941" x1="8.56073e-09" y1="1.29669" x2="2.59262" y2="1.29669" gradientUnits="userSpaceOnUse">
<stop stop-color="#FFBD39"/>
<stop offset="1" stop-color="#FA9531"/>
<stop offset="1" stop-color="#FA9531"/>
</linearGradient>
<linearGradient id="paint22_linear_1002_3941" x1="498.463" y1="94.9731" x2="499.133" y2="97.4774" gradientUnits="userSpaceOnUse">
<stop stop-color="#FFBD39"/>
<stop offset="1" stop-color="#FA9531"/>
<stop offset="1" stop-color="#FA9531"/>
</linearGradient>
<linearGradient id="paint23_linear_1002_3941" x1="472.066" y1="85.7659" x2="493.236" y2="93.4907" gradientUnits="userSpaceOnUse">
<stop stop-color="#FFBD39"/>
<stop offset="1" stop-color="#FA9531"/>
<stop offset="1" stop-color="#FA9531"/>
</linearGradient>
<linearGradient id="paint24_linear_1002_3941" x1="5.19619e-09" y1="0.786628" x2="1.57367" y2="0.786628" gradientUnits="userSpaceOnUse">
<stop stop-color="#FFBD39"/>
<stop offset="1" stop-color="#FA9531"/>
<stop offset="1" stop-color="#FA9531"/>
</linearGradient>
<linearGradient id="paint25_linear_1002_3941" x1="5.19619e-09" y1="0.786628" x2="1.57367" y2="0.786628" gradientUnits="userSpaceOnUse">
<stop stop-color="#FFBD39"/>
<stop offset="1" stop-color="#FA9531"/>
<stop offset="1" stop-color="#FA9531"/>
</linearGradient>
<linearGradient id="paint26_linear_1002_3941" x1="5.19619e-09" y1="0.786628" x2="1.57367" y2="0.786628" gradientUnits="userSpaceOnUse">
<stop stop-color="#FFBD39"/>
<stop offset="1" stop-color="#FA9531"/>
<stop offset="1" stop-color="#FA9531"/>
</linearGradient>
<clipPath id="clip0_1002_3941">
<rect width="10.276" height="9.96586" fill="white" transform="translate(363.644 291.499)"/>
</clipPath>
<clipPath id="clip1_1002_3941">
<rect width="10.3271" height="11.8568" fill="white" transform="translate(396.514 289.965)"/>
</clipPath>
<clipPath id="clip2_1002_3941">
<rect width="20.5439" height="20.5369" fill="white" transform="translate(105.849 134.685)"/>
</clipPath>
<clipPath id="clip3_1002_3941">
<rect width="84.2301" height="65.7181" fill="white" transform="translate(123.312 72.047)"/>
</clipPath>
</defs>
</svg>
